<svg id="Layer_1" data-name="Layer 1" xmlns="http://www.w3.org/2000/svg" viewBox="0 0 218.57 218.38"><defs><style>.cls-1{fill:#fff;}</style></defs><path class="cls-1" d="M52,260.43c-1.23-.53-2.52-1-3.69-1.59a14.1,14.1,0,0,1-4-21.58c.65-.75,1.37-1.45,2.07-2.15q41-41,82-81.94c.55-.55,1.19-1,1.94-1.66-.75-.79-1.3-1.39-1.88-2Q87,108.2,45.65,66.85c-6.37-6.38-6.39-15.51-.09-21.16a14.1,14.1,0,0,1,18.72-.18c.86.74,1.65,1.57,2.45,2.37q40.83,40.81,81.64,81.64c.55.54,1.12,1.06,1.78,1.69.68-.65,1.3-1.22,1.89-1.81q41.34-41.34,82.7-82.69c7.71-7.69,19.87-5.45,23.7,4.32.36.91.66,1.85,1,2.78V58.5C258.38,62.83,255.6,66,252.54,69q-40.35,40.2-80.6,80.5a12.61,12.61,0,0,1-2.35,1.46c1.25,1.13,1.86,1.63,2.41,2.18q40.35,40.35,80.73,80.67c3,3,5.7,6.12,6.7,10.39v4.69c-1.63,5.84-5.23,9.78-11.1,11.53h-6.41c-4.09-1.39-7-4.31-10-7.28q-39.93-40-79.93-80c-.59-.58-1.2-1.14-2.13-2a22,22,0,0,1-1.71,2.17Q108,213.47,67.92,253.61c-2.82,2.83-5.69,5.5-9.56,6.82Z" transform="translate(-40.85 -42.04)"/></svg>