<svg id="Layer_1" data-name="Layer 1" xmlns="http://www.w3.org/2000/svg" viewBox="0 0 227.57 199.41"><defs><style>.cls-1{fill:#fff;}</style></defs><path class="cls-1" d="M264.44,245.33c-3,5.66-6.74,6.52-12,2.74-11.39-8.13-22.8-16.21-34.15-24.4a21.17,21.17,0,0,0-12.85-4.08q-39,.06-78,0c-15.94,0-27-11-27-26.89,0-3.7,0-7.39,0-11.42h2.67c23.85,0,47.69,0,71.54,0,17.95,0,33.14-11.27,38-28.21a44.12,44.12,0,0,0,1.55-11.16c.19-12.21.07-24.44.07-36.66v-2.6c4,0,7.73,0,11.48,0,5.62.08,11.31-.28,16.85.44,11.24,1.47,19.43,9.8,21.48,21a10.7,10.7,0,0,0,.4,1.25Z" transform="translate(-36.87 -50.96)"/><path class="cls-1" d="M127.32,51h64.87c6.48,0,8.71,2.2,8.71,8.6q0,41.1,0,82.2a25.57,25.57,0,0,1-20.23,25.52,31.8,31.8,0,0,1-6.82.66q-39,.06-78,0A21,21,0,0,0,83,172c-11.59,8.35-23.25,16.6-34.86,24.92-2.43,1.74-4.92,2.39-7.67.95S36.87,194,36.87,191q0-56.86,0-113.74c0-13.27,8.7-23.72,21.57-26a36.61,36.61,0,0,1,6.2-.35Q96,50.94,127.32,51Zm-4.07,49.6h18c6.89,0,13.77,0,20.65,0a6.5,6.5,0,0,0,6.59-6.18,6.65,6.65,0,0,0-6-7,11.56,11.56,0,0,0-1.55-.07q-37.63,0-75.26,0a10.14,10.14,0,0,0-2.85.37,6.59,6.59,0,0,0-4.19,8.71c1.08,2.77,3.38,4.22,6.86,4.23Zm.09,31.11H139.1c7.48,0,15,0,22.43,0,4.39,0,7.36-3.28,6.92-7.4-.39-3.59-3.32-5.91-7.6-5.91H102.69c-5.7,0-11.4,0-17.09,0-2.89,0-5.22,1-6.63,3.63-2.43,4.55.78,9.66,6.19,9.68C97.89,131.7,110.61,131.66,123.34,131.67Z" transform="translate(-36.87 -50.96)"/></svg>