<svg id="Layer_1" data-name="Layer 1" xmlns="http://www.w3.org/2000/svg" viewBox="0 0 207.5 207.5"><defs><style>.cls-1{fill:#222;}.cls-2{fill:none;stroke:#222;stroke-miterlimit:10;stroke-width:8px;}</style></defs><path class="cls-1" d="M148.41,250.51a95.1,95.1,0,0,1-56.91-19.2,98.22,98.22,0,0,1-24.78-27,5.68,5.68,0,0,1-.38-5.94q14.31-28.9,46.07-34.4a9.45,9.45,0,0,1,7.27,1.91,51.21,51.21,0,0,0,38.2,8.85,49.56,49.56,0,0,0,21.54-8.76,10.54,10.54,0,0,1,8.52-1.8c20.57,3.88,35.43,15.28,44.85,33.9a5.27,5.27,0,0,1-.3,5.68,98.52,98.52,0,0,1-38,35.75C180.38,246.87,165.27,250.46,148.41,250.51Z" transform="translate(-46 -45)"/><path class="cls-1" d="M149.7,160.3a49,49,0,0,1-48.82-48.46c-.3-26.55,21.47-48.75,48.35-49.1,26.57-.34,48.7,21.34,49.12,48.1C198.78,137.78,177,159.91,149.7,160.3Z" transform="translate(-46 -45)"/><circle class="cls-2" cx="103.75" cy="103.75" r="99.75"/></svg>