<svg id="Layer_1" data-name="Layer 1" xmlns="http://www.w3.org/2000/svg" viewBox="0 0 198.59 198.55"><defs><style>.cls-1{fill:#fff;}</style></defs><path class="cls-1" d="M51.39,144.49c.52-3.77.89-7.56,1.58-11.3,4.12-22.37,14.74-41.14,31.55-56.43.29-.26.59-.5.9-.74a4,4,0,0,1,.62-.31q16.5,50.78,33,101.64H54.77c-.86-4.74-1.77-9.53-2.6-14.33-.34-2-.52-4.08-.78-6.12Z" transform="translate(-51.39 -51.39)"/><path class="cls-1" d="M155.74,51.39c4,.51,8.08.88,12.08,1.55a97.19,97.19,0,0,1,33.06,12.14c.39.23.75.49,1.34.88l-86.55,62.89c-.28-.69-.5-1.18-.67-1.7q-9.31-28.61-18.64-57.21c-.46-1.4-.31-2.13,1-3a98.55,98.55,0,0,1,46.4-15.28c.63-.05,1.26-.21,1.89-.32Z" transform="translate(-51.39 -51.39)"/><path class="cls-1" d="M158.87,249.52,192,147.73l51.67,37.54C231.05,221.15,195.51,247.43,158.87,249.52Z" transform="translate(-51.39 -51.39)"/><path class="cls-1" d="M212.4,73a99.93,99.93,0,0,1,33.4,49.21c5.73,18.66,4.95,38.78,1.35,51.28l-86.53-62.87Z" transform="translate(-51.39 -51.39)"/><path class="cls-1" d="M59.27,189.13H166.18c-.19.69-.34,1.3-.53,1.89q-9.26,28.53-18.52,57.06c-.38,1.17-.66,2-2.31,1.85q-41-3.06-68.51-33.49C69.3,208.68,61.77,196.57,59.27,189.13Z" transform="translate(-51.39 -51.39)"/></svg>