<svg id="Layer_1" data-name="Layer 1" xmlns="http://www.w3.org/2000/svg" viewBox="0 0 207.27 207.27"><defs><style>.cls-1{fill:#fff;}</style></defs><path class="cls-1" d="M150.91,253.35A103.64,103.64,0,1,1,254.35,150.22,103.44,103.44,0,0,1,150.91,253.35Zm-82.86-56c.85-1.31,1.42-2.1,1.91-2.95,9.1-15.55,22.57-25.18,40.14-28.66a17.16,17.16,0,0,1,11.25,1.73c19.6,11.92,38.83,12,58.4,0a15.47,15.47,0,0,1,9.82-2.11c11.87,2.06,22.69,6.82,31.1,15.74,4.71,5,8.78,10.62,13.1,15.91,21.15-34.35,17.35-86.58-19.79-119.2S122.47,45.92,86,79.25,47.4,164.25,68.05,197.31Z" transform="translate(-47.08 -46.08)"/><path class="cls-1" d="M151,63.73a48.72,48.72,0,0,1,48.35,49.37c-.28,26.71-22.55,48.6-49.07,48.21a48.81,48.81,0,0,1-48.33-49.43C102.08,85.24,124.11,63.62,151,63.73Z" transform="translate(-47.08 -46.08)"/></svg>